<?xml version="1.0" encoding="UTF-8"?>
<svg xmlns="http://www.w3.org/2000/svg" xmlns:xlink="http://www.w3.org/1999/xlink" width="162pt" height="91pt" viewBox="0 0 162 91" version="1.1">
<defs>
<linearGradient id="linear0" gradientUnits="userSpaceOnUse" x1="54.4568" y1="122.5936" x2="251.779" y2="10.2057" gradientTransform="matrix(0.61597,0,0,0.619048,0,0)">
<stop offset="0" style="stop-color:rgb(0%,67.843137%,93.333333%);stop-opacity:1;"/>
<stop offset="1" style="stop-color:rgb(62.352941%,46.27451%,65.098039%);stop-opacity:1;"/>
</linearGradient>
<linearGradient id="linear1" gradientUnits="userSpaceOnUse" x1="80.247" y1="38.7607" x2="241.2622" y2="10.9511" gradientTransform="matrix(0.61597,0,0,0.619048,0,0)">
<stop offset="0" style="stop-color:rgb(92.54902%,1.176471%,48.627451%);stop-opacity:1;"/>
<stop offset="1" style="stop-color:rgb(62.352941%,46.27451%,65.098039%);stop-opacity:1;"/>
</linearGradient>
<linearGradient id="linear2" gradientUnits="userSpaceOnUse" x1="75.7205" y1="33.5582" x2="127.8253" y2="123.9392" gradientTransform="matrix(0.61597,0,0,0.619048,0,0)">
<stop offset="0" style="stop-color:rgb(92.54902%,1.176471%,48.627451%);stop-opacity:1;"/>
<stop offset="1" style="stop-color:rgb(36.078431%,17.647059%,56.470588%);stop-opacity:1;"/>
</linearGradient>
<linearGradient id="linear3" gradientUnits="userSpaceOnUse" x1="7.4647" y1="44.578" x2="129.4543" y2="125.0813" gradientTransform="matrix(0.61597,0,0,0.619048,0,0)">
<stop offset="0" style="stop-color:rgb(26.666667%,78.039216%,95.686275%);stop-opacity:1;"/>
<stop offset="1" style="stop-color:rgb(36.078431%,17.647059%,56.470588%);stop-opacity:1;"/>
</linearGradient>
</defs>
<g id="surface1">
<path style=" stroke:none;fill-rule:nonzero;fill:url(#linear0);" d="M 160.882812 6.414062 C 160.882812 4.246094 159.714844 2.246094 157.828125 1.1875 C 155.945312 0.125 153.636719 0.175781 151.800781 1.308594 L 12.746094 84.238281 C 11.796875 84.679688 11.160156 85.605469 11.082031 86.65625 C 11.003906 87.707031 11.496094 88.71875 12.367188 89.296875 C 13.242188 89.878906 14.359375 89.941406 15.292969 89.457031 C 15.328125 89.4375 15.367188 89.417969 15.402344 89.398438 L 157.398438 11.863281 C 157.644531 11.75 157.882812 11.621094 158.109375 11.476562 L 158.128906 11.464844 L 158.128906 11.460938 C 159.84375 10.363281 160.882812 8.460938 160.882812 6.414062 Z M 160.882812 6.414062 "/>
<path style=" stroke:none;fill-rule:nonzero;fill:url(#linear1);" d="M 160.882812 6.414062 C 160.882812 3.105469 158.210938 0.421875 154.917969 0.421875 C 154.808594 0.421875 154.695312 0.425781 154.582031 0.433594 C 154.480469 0.4375 154.378906 0.449219 154.277344 0.457031 L 47.304688 15.734375 C 44.195312 16.304688 41.660156 18.566406 40.734375 21.605469 C 39.804688 24.640625 40.640625 27.945312 42.894531 30.167969 C 45.148438 32.394531 48.453125 33.167969 51.457031 32.179688 L 155.71875 12.351562 C 155.933594 12.320312 156.148438 12.28125 156.359375 12.230469 L 156.371094 12.226562 C 159.023438 11.558594 160.882812 9.164062 160.882812 6.414062 Z M 160.882812 6.414062 "/>
<path style=" stroke:none;fill-rule:nonzero;fill:url(#linear2);" d="M 89.441406 76.53125 C 89.394531 74.445312 88.738281 72.414062 87.554688 70.699219 L 56.242188 20.027344 C 54.160156 16.203125 49.535156 14.578125 45.535156 16.269531 C 41.535156 17.960938 39.457031 22.417969 40.722656 26.589844 C 40.886719 27.125 41.101562 27.640625 41.367188 28.136719 C 41.367188 28.136719 69.230469 81.601562 69.445312 81.992188 C 69.570312 82.21875 69.707031 82.445312 69.847656 82.664062 C 72.457031 86.671875 77.394531 88.453125 81.945312 87.03125 C 86.496094 85.605469 89.554688 81.320312 89.441406 76.53125 Z M 89.441406 76.53125 "/>
<path style=" stroke:none;fill-rule:nonzero;fill:url(#linear3);" d="M 89.441406 76.53125 C 89.359375 73.058594 87.609375 69.84375 84.742188 67.902344 C 84.214844 67.546875 83.660156 67.238281 83.078125 66.980469 L 5.882812 24.121094 C 4.164062 23.207031 2.03125 23.769531 0.984375 25.417969 C -0.0625 27.066406 0.324219 29.246094 1.875 30.429688 L 72.335938 85.339844 C 75.605469 87.824219 79.996094 88.210938 83.640625 86.332031 C 87.285156 84.457031 89.539062 80.648438 89.441406 76.53125 Z M 89.441406 76.53125 "/>
<path style=" stroke:none;fill-rule:nonzero;fill:rgb(0%,0%,0%);fill-opacity:1;" d="M 42.5 31.570312 L 85.621094 31.570312 L 85.621094 74.90625 L 42.5 74.90625 Z M 42.5 31.570312 "/>
<path style=" stroke:none;fill-rule:nonzero;fill:rgb(100%,100%,100%);fill-opacity:1;" d="M 46.222656 66.78125 L 62.390625 66.78125 L 62.390625 69.488281 L 46.222656 69.488281 Z M 46.222656 66.78125 "/>
<path style=" stroke:none;fill-rule:nonzero;fill:rgb(100%,100%,100%);fill-opacity:1;" d="M 46.039062 42.980469 L 47.292969 41.789062 C 47.539062 42.171875 47.949219 42.417969 48.398438 42.445312 C 48.644531 42.445312 48.875 42.332031 49.027344 42.140625 C 49.179688 41.949219 49.242188 41.699219 49.191406 41.457031 L 49.191406 36.988281 L 51.128906 36.988281 L 51.128906 41.46875 C 51.183594 42.199219 50.933594 42.917969 50.4375 43.457031 C 49.917969 43.945312 49.222656 44.203125 48.507812 44.171875 C 47.539062 44.222656 46.609375 43.773438 46.039062 42.980469 Z M 46.039062 42.980469 "/>
<path style=" stroke:none;fill-rule:nonzero;fill:rgb(100%,100%,100%);fill-opacity:1;" d="M 51.582031 36.988281 L 57.234375 36.988281 L 57.234375 38.644531 L 53.507812 38.644531 L 53.507812 39.722656 L 56.882812 39.722656 L 56.882812 41.265625 L 53.507812 41.265625 L 53.507812 42.386719 L 57.285156 42.386719 L 57.285156 44.050781 L 51.582031 44.050781 Z M 51.582031 36.988281 "/>
<path style=" stroke:none;fill-rule:nonzero;fill:rgb(100%,100%,100%);fill-opacity:1;" d="M 59.777344 38.703125 L 57.679688 38.703125 L 57.679688 36.988281 L 63.835938 36.988281 L 63.835938 38.703125 L 61.726562 38.703125 L 61.726562 44.050781 L 59.777344 44.050781 Z M 59.777344 38.703125 "/>
<path style=" stroke:none;fill-rule:nonzero;fill:rgb(100%,100%,100%);fill-opacity:1;" d="M 46.21875 45.703125 L 49.824219 45.703125 C 50.519531 45.644531 51.210938 45.871094 51.742188 46.328125 C 52.039062 46.632812 52.203125 47.046875 52.191406 47.476562 L 52.191406 47.496094 C 52.207031 48.203125 51.769531 48.835938 51.109375 49.070312 C 51.933594 49.222656 52.523438 49.957031 52.503906 50.796875 L 52.503906 50.816406 C 52.503906 52.027344 51.519531 52.765625 49.84375 52.765625 L 46.21875 52.765625 Z M 50.277344 47.882812 C 50.277344 47.488281 49.964844 47.277344 49.390625 47.277344 L 48.117188 47.277344 L 48.117188 48.515625 L 49.34375 48.515625 C 49.933594 48.515625 50.277344 48.316406 50.277344 47.902344 Z M 49.601562 49.890625 L 48.117188 49.890625 L 48.117188 51.191406 L 49.625 51.191406 C 50.226562 51.191406 50.558594 50.957031 50.558594 50.542969 L 50.558594 50.523438 C 50.558594 50.140625 50.257812 49.890625 49.601562 49.890625 Z M 49.601562 49.890625 "/>
<path style=" stroke:none;fill-rule:nonzero;fill:rgb(100%,100%,100%);fill-opacity:1;" d="M 52.796875 45.703125 L 56.117188 45.703125 C 56.953125 45.632812 57.777344 45.90625 58.40625 46.457031 C 58.832031 46.894531 59.058594 47.492188 59.03125 48.101562 L 59.03125 48.125 C 59.066406 49.085938 58.484375 49.964844 57.585938 50.300781 L 59.261719 52.765625 L 57.023438 52.765625 L 55.605469 50.625 L 54.742188 50.625 L 54.742188 52.765625 L 52.796875 52.765625 Z M 56.039062 49.089844 C 56.289062 49.140625 56.550781 49.074219 56.75 48.914062 C 56.953125 48.753906 57.074219 48.511719 57.082031 48.253906 L 57.082031 48.234375 C 57.082031 47.667969 56.671875 47.386719 56.027344 47.386719 L 54.742188 47.386719 L 54.742188 49.089844 Z M 56.039062 49.089844 "/>
<path style=" stroke:none;fill-rule:nonzero;fill:rgb(100%,100%,100%);fill-opacity:1;" d="M 61.308594 45.652344 L 63.1875 45.652344 L 66.179688 52.765625 L 64.089844 52.765625 L 63.585938 51.492188 L 60.867188 51.492188 L 60.363281 52.765625 L 58.328125 52.765625 Z M 63.015625 49.96875 L 62.234375 47.972656 L 61.441406 49.96875 Z M 63.015625 49.96875 "/>
<path style=" stroke:none;fill-rule:nonzero;fill:rgb(100%,100%,100%);fill-opacity:1;" d="M 66.410156 45.703125 L 68.355469 45.703125 L 68.355469 52.765625 L 66.410156 52.765625 Z M 66.410156 45.703125 "/>
<path style=" stroke:none;fill-rule:nonzero;fill:rgb(100%,100%,100%);fill-opacity:1;" d="M 68.839844 45.703125 L 70.65625 45.703125 L 73.546875 49.433594 L 73.546875 45.703125 L 75.472656 45.703125 L 75.472656 52.765625 L 73.777344 52.765625 L 70.765625 48.890625 L 70.765625 52.765625 L 68.839844 52.765625 Z M 68.839844 45.703125 "/>
<path style=" stroke:none;fill-rule:nonzero;fill:rgb(100%,100%,100%);fill-opacity:1;" d="M 75.597656 51.714844 L 76.679688 50.414062 C 77.320312 50.949219 78.125 51.25 78.960938 51.261719 C 79.492188 51.261719 79.773438 51.078125 79.773438 50.777344 L 79.773438 50.757812 C 79.773438 50.453125 79.542969 50.300781 78.578125 50.070312 C 77.082031 49.726562 75.925781 49.304688 75.925781 47.859375 L 75.925781 47.839844 C 75.925781 46.527344 76.960938 45.582031 78.648438 45.582031 C 79.691406 45.539062 80.714844 45.871094 81.539062 46.519531 L 80.566406 47.902344 C 79.996094 47.46875 79.308594 47.226562 78.597656 47.203125 C 78.125 47.203125 77.894531 47.398438 77.894531 47.660156 L 77.894531 47.679688 C 77.894531 48 78.136719 48.144531 79.121094 48.363281 C 80.726562 48.71875 81.730469 49.242188 81.730469 50.566406 L 81.730469 50.585938 C 81.730469 52.027344 80.597656 52.886719 78.890625 52.886719 C 77.6875 52.914062 76.515625 52.496094 75.597656 51.714844 Z M 75.597656 51.714844 "/>
</g>
</svg>
